<mxfile host="app.diagrams.net" modified="2021-02-03T10:50:02.476Z" agent="5.0 (Windows NT 6.3; Win64; x64) AppleWebKit/537.36 (KHTML, like Gecko) Chrome/88.0.4324.104 Safari/537.36" etag="9kooU0nKf_OqZ52JRebz" version="14.1.8" type="github">
  <diagram id="kgpKYQtTHZ0yAKxKKP6v" name="Page-1">
    <mxGraphModel dx="2516" dy="790" grid="1" gridSize="10" guides="1" tooltips="1" connect="1" arrows="1" fold="1" page="1" pageScale="1" pageWidth="850" pageHeight="1100" math="0" shadow="0">
      <root>
        <mxCell id="0" />
        <mxCell id="1" parent="0" />
        <mxCell id="Sf71VCMKLxLtWwoqKcej-23" value="Invoice &#xa;Controller" style="shape=umlLifeline;perimeter=lifelinePerimeter;container=1;collapsible=0;recursiveResize=0;rounded=0;shadow=0;strokeWidth=1;" vertex="1" parent="1">
          <mxGeometry x="210" y="90" width="100" height="670" as="geometry" />
        </mxCell>
        <mxCell id="Sf71VCMKLxLtWwoqKcej-24" value="" style="points=[];perimeter=orthogonalPerimeter;rounded=0;shadow=0;strokeWidth=1;" vertex="1" parent="Sf71VCMKLxLtWwoqKcej-23">
          <mxGeometry x="45" y="70" width="10" height="550" as="geometry" />
        </mxCell>
        <mxCell id="Sf71VCMKLxLtWwoqKcej-26" value="Invoice &#xa;Service" style="shape=umlLifeline;perimeter=lifelinePerimeter;container=1;collapsible=0;recursiveResize=0;rounded=0;shadow=0;strokeWidth=1;" vertex="1" parent="1">
          <mxGeometry x="435" y="90" width="100" height="670" as="geometry" />
        </mxCell>
        <mxCell id="Sf71VCMKLxLtWwoqKcej-27" value="" style="points=[];perimeter=orthogonalPerimeter;rounded=0;shadow=0;strokeWidth=1;" vertex="1" parent="Sf71VCMKLxLtWwoqKcej-26">
          <mxGeometry x="45" y="90" width="10" height="530" as="geometry" />
        </mxCell>
        <mxCell id="Sf71VCMKLxLtWwoqKcej-28" value="GenerateInvoiceByInspectionNumber" style="verticalAlign=bottom;endArrow=block;shadow=0;strokeWidth=1;" edge="1" parent="1" source="Sf71VCMKLxLtWwoqKcej-24" target="Sf71VCMKLxLtWwoqKcej-26">
          <mxGeometry x="-0.0233" y="10" relative="1" as="geometry">
            <mxPoint x="285" y="170" as="sourcePoint" />
            <mxPoint as="offset" />
            <Array as="points">
              <mxPoint x="420" y="190" />
            </Array>
          </mxGeometry>
        </mxCell>
        <mxCell id="Sf71VCMKLxLtWwoqKcej-29" value="Inspection&#xa;Repository" style="shape=umlLifeline;perimeter=lifelinePerimeter;container=1;collapsible=0;recursiveResize=0;rounded=0;shadow=0;strokeWidth=1;" vertex="1" parent="1">
          <mxGeometry x="670" y="90" width="100" height="670" as="geometry" />
        </mxCell>
        <mxCell id="Sf71VCMKLxLtWwoqKcej-30" value="" style="points=[];perimeter=orthogonalPerimeter;rounded=0;shadow=0;strokeWidth=1;" vertex="1" parent="Sf71VCMKLxLtWwoqKcej-29">
          <mxGeometry x="45" y="45" width="10" height="575" as="geometry" />
        </mxCell>
        <mxCell id="Sf71VCMKLxLtWwoqKcej-31" value="Actor" style="shape=umlActor;verticalLabelPosition=bottom;verticalAlign=top;html=1;outlineConnect=0;" vertex="1" parent="1">
          <mxGeometry x="70" y="140" width="30" height="60" as="geometry" />
        </mxCell>
        <mxCell id="Sf71VCMKLxLtWwoqKcej-33" value="Does inspection exist?" style="verticalAlign=bottom;endArrow=block;entryX=0;entryY=0;shadow=0;strokeWidth=1;" edge="1" parent="1">
          <mxGeometry x="0.0233" relative="1" as="geometry">
            <mxPoint x="492" y="199" as="sourcePoint" />
            <mxPoint x="714.9999999999998" y="199.0000000000001" as="targetPoint" />
            <mxPoint as="offset" />
          </mxGeometry>
        </mxCell>
        <mxCell id="Sf71VCMKLxLtWwoqKcej-34" value="return" style="verticalAlign=bottom;endArrow=open;dashed=1;endSize=8;shadow=0;strokeWidth=1;" edge="1" parent="1">
          <mxGeometry x="-0.0006" y="-30" relative="1" as="geometry">
            <mxPoint x="489.9999999999998" y="260.4999999999998" as="targetPoint" />
            <mxPoint x="709.9999999999998" y="260" as="sourcePoint" />
            <mxPoint as="offset" />
          </mxGeometry>
        </mxCell>
        <mxCell id="Sf71VCMKLxLtWwoqKcej-35" value="Pool" style="swimlane;html=1;childLayout=stackLayout;resizeParent=1;resizeParentMax=0;horizontal=0;startSize=20;horizontalStack=0;" vertex="1" parent="1">
          <mxGeometry x="-60" y="220" width="850" height="210" as="geometry" />
        </mxCell>
        <mxCell id="Sf71VCMKLxLtWwoqKcej-36" value="" style="swimlane;html=1;startSize=20;horizontal=0;" vertex="1" parent="Sf71VCMKLxLtWwoqKcej-35">
          <mxGeometry x="20" width="830" height="90" as="geometry" />
        </mxCell>
        <mxCell id="Sf71VCMKLxLtWwoqKcej-48" value="Alternative" style="text;html=1;align=center;verticalAlign=middle;resizable=0;points=[];autosize=1;" vertex="1" parent="Sf71VCMKLxLtWwoqKcej-36">
          <mxGeometry x="20" width="70" height="20" as="geometry" />
        </mxCell>
        <mxCell id="Sf71VCMKLxLtWwoqKcej-59" value="" style="endArrow=none;dashed=1;html=1;dashPattern=1 3;strokeWidth=2;" edge="1" parent="Sf71VCMKLxLtWwoqKcej-36">
          <mxGeometry width="50" height="50" relative="1" as="geometry">
            <mxPoint x="120" y="430" as="sourcePoint" />
            <mxPoint x="120" as="targetPoint" />
            <Array as="points" />
          </mxGeometry>
        </mxCell>
        <mxCell id="Sf71VCMKLxLtWwoqKcej-63" value="[if spection can &lt;br&gt;not be found]" style="text;html=1;align=center;verticalAlign=middle;resizable=0;points=[];autosize=1;" vertex="1" parent="Sf71VCMKLxLtWwoqKcej-36">
          <mxGeometry x="20" y="40" width="100" height="30" as="geometry" />
        </mxCell>
        <mxCell id="Sf71VCMKLxLtWwoqKcej-69" value="" style="endArrow=classic;html=1;" edge="1" parent="Sf71VCMKLxLtWwoqKcej-36">
          <mxGeometry width="50" height="50" relative="1" as="geometry">
            <mxPoint x="290" y="81" as="sourcePoint" />
            <mxPoint x="120" y="81" as="targetPoint" />
          </mxGeometry>
        </mxCell>
        <mxCell id="Sf71VCMKLxLtWwoqKcej-71" value="return null invoice" style="text;html=1;align=center;verticalAlign=middle;resizable=0;points=[];autosize=1;" vertex="1" parent="Sf71VCMKLxLtWwoqKcej-36">
          <mxGeometry x="140" y="60" width="110" height="20" as="geometry" />
        </mxCell>
        <mxCell id="Sf71VCMKLxLtWwoqKcej-47" value="Inspection Not found" style="text;html=1;align=center;verticalAlign=middle;resizable=0;points=[];autosize=1;" vertex="1" parent="Sf71VCMKLxLtWwoqKcej-36">
          <mxGeometry x="575" y="20" width="130" height="20" as="geometry" />
        </mxCell>
        <mxCell id="Sf71VCMKLxLtWwoqKcej-38" value="Lane 2" style="swimlane;html=1;startSize=20;horizontal=0;" vertex="1" parent="Sf71VCMKLxLtWwoqKcej-35">
          <mxGeometry x="20" y="90" width="830" height="120" as="geometry" />
        </mxCell>
        <mxCell id="Sf71VCMKLxLtWwoqKcej-39" value="" style="verticalAlign=bottom;endArrow=open;dashed=1;endSize=8;shadow=0;strokeWidth=1;" edge="1" parent="Sf71VCMKLxLtWwoqKcej-38">
          <mxGeometry x="-0.0006" y="-30" relative="1" as="geometry">
            <mxPoint x="530" y="40.49999999999977" as="targetPoint" />
            <mxPoint x="750" y="40" as="sourcePoint" />
            <mxPoint as="offset" />
          </mxGeometry>
        </mxCell>
        <mxCell id="Sf71VCMKLxLtWwoqKcej-72" value="Inspection found" style="text;html=1;align=center;verticalAlign=middle;resizable=0;points=[];autosize=1;" vertex="1" parent="Sf71VCMKLxLtWwoqKcej-38">
          <mxGeometry x="590" y="20" width="100" height="20" as="geometry" />
        </mxCell>
        <mxCell id="Sf71VCMKLxLtWwoqKcej-75" value="" style="endArrow=classic;html=1;" edge="1" parent="Sf71VCMKLxLtWwoqKcej-38">
          <mxGeometry width="50" height="50" relative="1" as="geometry">
            <mxPoint x="530" y="90" as="sourcePoint" />
            <mxPoint x="750" y="90" as="targetPoint" />
          </mxGeometry>
        </mxCell>
        <mxCell id="Sf71VCMKLxLtWwoqKcej-66" value="[else]" style="text;html=1;align=center;verticalAlign=middle;resizable=0;points=[];autosize=1;" vertex="1" parent="Sf71VCMKLxLtWwoqKcej-38">
          <mxGeometry x="40" y="40" width="40" height="20" as="geometry" />
        </mxCell>
        <mxCell id="Sf71VCMKLxLtWwoqKcej-43" value="return null invoice" style="text;html=1;align=center;verticalAlign=middle;resizable=0;points=[];autosize=1;" vertex="1" parent="1">
          <mxGeometry x="315" y="270" width="110" height="20" as="geometry" />
        </mxCell>
        <mxCell id="Sf71VCMKLxLtWwoqKcej-44" value="" style="endArrow=classic;html=1;" edge="1" parent="1" target="Sf71VCMKLxLtWwoqKcej-24">
          <mxGeometry width="50" height="50" relative="1" as="geometry">
            <mxPoint x="480" y="291" as="sourcePoint" />
            <mxPoint x="270" y="290" as="targetPoint" />
          </mxGeometry>
        </mxCell>
        <mxCell id="Sf71VCMKLxLtWwoqKcej-70" value="&lt;span style=&quot;color: rgba(0 , 0 , 0 , 0) ; font-family: monospace ; font-size: 0px&quot;&gt;%3CmxGraphModel%3E%3Croot%3E%3CmxCell%20id%3D%220%22%2F%3E%3CmxCell%20id%3D%221%22%20parent%3D%220%22%2F%3E%3CmxCell%20id%3D%222%22%20value%3D%22return%20null%20invoice%22%20style%3D%22text%3Bhtml%3D1%3Balign%3Dcenter%3BverticalAlign%3Dmiddle%3Bresizable%3D0%3Bpoints%3D%5B%5D%3Bautosize%3D1%3B%22%20vertex%3D%221%22%20parent%3D%221%22%3E%3CmxGeometry%20x%3D%22315%22%20y%3D%22270%22%20width%3D%22110%22%20height%3D%2220%22%20as%3D%22geometry%22%2F%3E%3C%2FmxCell%3E%3C%2Froot%3E%3C%2FmxGraphModel%3E&lt;/span&gt;" style="text;html=1;align=center;verticalAlign=middle;resizable=0;points=[];autosize=1;" vertex="1" parent="1">
          <mxGeometry x="170" y="280" width="20" height="20" as="geometry" />
        </mxCell>
        <mxCell id="Sf71VCMKLxLtWwoqKcej-77" value="Does customer agree to repair?" style="text;html=1;align=center;verticalAlign=middle;resizable=0;points=[];autosize=1;" vertex="1" parent="1">
          <mxGeometry x="510" y="380" width="180" height="20" as="geometry" />
        </mxCell>
        <mxCell id="Sf71VCMKLxLtWwoqKcej-79" value="Pool" style="swimlane;html=1;childLayout=stackLayout;resizeParent=1;resizeParentMax=0;horizontal=0;startSize=20;horizontalStack=0;" vertex="1" parent="1">
          <mxGeometry x="-60" y="450" width="850" height="210" as="geometry" />
        </mxCell>
        <mxCell id="Sf71VCMKLxLtWwoqKcej-80" value="Lane 1" style="swimlane;html=1;startSize=20;horizontal=0;" vertex="1" parent="Sf71VCMKLxLtWwoqKcej-79">
          <mxGeometry x="20" width="830" height="90" as="geometry" />
        </mxCell>
        <mxCell id="Sf71VCMKLxLtWwoqKcej-81" value="Alternative" style="text;html=1;align=center;verticalAlign=middle;resizable=0;points=[];autosize=1;" vertex="1" parent="Sf71VCMKLxLtWwoqKcej-80">
          <mxGeometry x="20" width="70" height="20" as="geometry" />
        </mxCell>
        <mxCell id="Sf71VCMKLxLtWwoqKcej-82" value="" style="endArrow=none;dashed=1;html=1;dashPattern=1 3;strokeWidth=2;" edge="1" parent="Sf71VCMKLxLtWwoqKcej-80">
          <mxGeometry width="50" height="50" relative="1" as="geometry">
            <mxPoint x="120" y="310" as="sourcePoint" />
            <mxPoint x="120" as="targetPoint" />
            <Array as="points" />
          </mxGeometry>
        </mxCell>
        <mxCell id="Sf71VCMKLxLtWwoqKcej-83" value="[if customer &lt;br&gt;agreed to repair]" style="text;html=1;align=center;verticalAlign=middle;resizable=0;points=[];autosize=1;" vertex="1" parent="Sf71VCMKLxLtWwoqKcej-80">
          <mxGeometry x="20" y="40" width="100" height="30" as="geometry" />
        </mxCell>
        <mxCell id="Sf71VCMKLxLtWwoqKcej-84" value="" style="endArrow=classic;html=1;" edge="1" parent="Sf71VCMKLxLtWwoqKcej-80">
          <mxGeometry width="50" height="50" relative="1" as="geometry">
            <mxPoint x="290" y="60" as="sourcePoint" />
            <mxPoint x="120" y="60" as="targetPoint" />
          </mxGeometry>
        </mxCell>
        <mxCell id="Sf71VCMKLxLtWwoqKcej-86" value="Agreed to repair" style="text;html=1;align=center;verticalAlign=middle;resizable=0;points=[];autosize=1;" vertex="1" parent="Sf71VCMKLxLtWwoqKcej-80">
          <mxGeometry x="585" y="10" width="100" height="20" as="geometry" />
        </mxCell>
        <mxCell id="Sf71VCMKLxLtWwoqKcej-74" value="" style="endArrow=classic;html=1;" edge="1" parent="Sf71VCMKLxLtWwoqKcej-80">
          <mxGeometry width="50" height="50" relative="1" as="geometry">
            <mxPoint x="522.5" y="44.5" as="sourcePoint" />
            <mxPoint x="307.5" y="44.5" as="targetPoint" />
          </mxGeometry>
        </mxCell>
        <mxCell id="Sf71VCMKLxLtWwoqKcej-78" value="" style="verticalAlign=bottom;endArrow=open;dashed=1;endSize=8;shadow=0;strokeWidth=1;" edge="1" parent="Sf71VCMKLxLtWwoqKcej-80">
          <mxGeometry x="-0.0006" y="-30" relative="1" as="geometry">
            <mxPoint x="530" y="30.499999999999773" as="targetPoint" />
            <mxPoint x="750" y="30" as="sourcePoint" />
            <mxPoint as="offset" />
          </mxGeometry>
        </mxCell>
        <mxCell id="Sf71VCMKLxLtWwoqKcej-87" value="Lane 2" style="swimlane;html=1;startSize=20;horizontal=0;" vertex="1" parent="Sf71VCMKLxLtWwoqKcej-79">
          <mxGeometry x="20" y="90" width="830" height="120" as="geometry" />
        </mxCell>
        <mxCell id="Sf71VCMKLxLtWwoqKcej-88" value="" style="verticalAlign=bottom;endArrow=open;dashed=1;endSize=8;shadow=0;strokeWidth=1;" edge="1" parent="Sf71VCMKLxLtWwoqKcej-87">
          <mxGeometry x="-0.0006" y="-30" relative="1" as="geometry">
            <mxPoint x="530" y="40.49999999999977" as="targetPoint" />
            <mxPoint x="750" y="40" as="sourcePoint" />
            <mxPoint as="offset" />
          </mxGeometry>
        </mxCell>
        <mxCell id="Sf71VCMKLxLtWwoqKcej-89" value="No repair" style="text;html=1;align=center;verticalAlign=middle;resizable=0;points=[];autosize=1;" vertex="1" parent="Sf71VCMKLxLtWwoqKcej-87">
          <mxGeometry x="610" y="20" width="60" height="20" as="geometry" />
        </mxCell>
        <mxCell id="Sf71VCMKLxLtWwoqKcej-95" value="" style="endArrow=classic;html=1;" edge="1" parent="Sf71VCMKLxLtWwoqKcej-87">
          <mxGeometry width="50" height="50" relative="1" as="geometry">
            <mxPoint x="515" y="74" as="sourcePoint" />
            <mxPoint x="300" y="74" as="targetPoint" />
          </mxGeometry>
        </mxCell>
        <mxCell id="Sf71VCMKLxLtWwoqKcej-98" value="return invoice with only&lt;br&gt;inspection fee" style="text;html=1;align=center;verticalAlign=middle;resizable=0;points=[];autosize=1;" vertex="1" parent="Sf71VCMKLxLtWwoqKcej-87">
          <mxGeometry x="130" y="60" width="140" height="30" as="geometry" />
        </mxCell>
        <mxCell id="Sf71VCMKLxLtWwoqKcej-97" value="" style="endArrow=classic;html=1;" edge="1" parent="Sf71VCMKLxLtWwoqKcej-87">
          <mxGeometry width="50" height="50" relative="1" as="geometry">
            <mxPoint x="290" y="100" as="sourcePoint" />
            <mxPoint x="120" y="100" as="targetPoint" />
          </mxGeometry>
        </mxCell>
        <mxCell id="Sf71VCMKLxLtWwoqKcej-96" value="return invoice with only &lt;br&gt;inspection fee" style="text;html=1;align=center;verticalAlign=middle;resizable=0;points=[];autosize=1;" vertex="1" parent="Sf71VCMKLxLtWwoqKcej-87">
          <mxGeometry x="340" y="40" width="140" height="30" as="geometry" />
        </mxCell>
        <mxCell id="Sf71VCMKLxLtWwoqKcej-103" value="[else]" style="text;html=1;align=center;verticalAlign=middle;resizable=0;points=[];autosize=1;" vertex="1" parent="Sf71VCMKLxLtWwoqKcej-87">
          <mxGeometry x="40" y="40" width="40" height="20" as="geometry" />
        </mxCell>
        <mxCell id="Sf71VCMKLxLtWwoqKcej-93" value="return invoice with repair fee" style="text;html=1;align=center;verticalAlign=middle;resizable=0;points=[];autosize=1;" vertex="1" parent="1">
          <mxGeometry x="285" y="470" width="170" height="20" as="geometry" />
        </mxCell>
        <mxCell id="Sf71VCMKLxLtWwoqKcej-94" value="return invoice with repair fee" style="text;html=1;align=center;verticalAlign=middle;resizable=0;points=[];autosize=1;" vertex="1" parent="1">
          <mxGeometry x="85" y="490" width="170" height="20" as="geometry" />
        </mxCell>
        <mxCell id="Sf71VCMKLxLtWwoqKcej-25" value="request invoice" style="verticalAlign=bottom;startArrow=oval;endArrow=block;startSize=8;shadow=0;strokeWidth=1;" edge="1" parent="1" target="Sf71VCMKLxLtWwoqKcej-24">
          <mxGeometry x="-0.2" y="10" relative="1" as="geometry">
            <mxPoint x="100" y="170" as="sourcePoint" />
            <mxPoint as="offset" />
            <Array as="points">
              <mxPoint x="220" y="170" />
            </Array>
          </mxGeometry>
        </mxCell>
      </root>
    </mxGraphModel>
  </diagram>
</mxfile>
